<svg width="1200" height="1200" viewBox="0 0 1200 1200" fill="none" xmlns="http://www.w3.org/2000/svg">
  <rect width="1200" height="1200" fill="#09101D"/>
  <rect x="80" y="80" width="1040" height="1040" rx="52" fill="url(#bg)"/>
  <circle cx="600" cy="455" r="220" fill="#10192B" stroke="#6DC7FF" stroke-width="16"/>
  <path d="M450 830C450 747.157 517.157 680 600 680C682.843 680 750 747.157 750 830V896H450V830Z" fill="#10192B" stroke="#F7D046" stroke-width="16"/>
  <rect x="470" y="395" width="100" height="54" rx="27" fill="#FFD56A"/>
  <rect x="630" y="395" width="100" height="54" rx="27" fill="#FFD56A"/>
  <circle cx="520" cy="422" r="14" fill="#071420"/>
  <circle cx="680" cy="422" r="14" fill="#071420"/>
  <path d="M520 552C557.333 580 642.667 580 680 552" stroke="#6DC7FF" stroke-width="18" stroke-linecap="round"/>
  <path d="M420 315L600 205L780 315" stroke="#6DC7FF" stroke-width="20" stroke-linecap="round"/>
  <text x="600" y="1010" fill="#F8FBFF" font-family="Inter, sans-serif" font-size="82" font-weight="700" text-anchor="middle">Citizen 001</text>
  <text x="600" y="1088" fill="#9DB0C8" font-family="Inter, sans-serif" font-size="42" font-weight="500" text-anchor="middle">Signal Blue • Overcity Scout</text>
  <defs>
    <linearGradient id="bg" x1="160" y1="120" x2="1040" y2="1080" gradientUnits="userSpaceOnUse">
      <stop stop-color="#15395E"/>
      <stop offset="1" stop-color="#0C1523"/>
    </linearGradient>
  </defs>
</svg>
